HIERARCHY
ROOT RootJoint
{
    OFFSET   0.000000   0.000000   0.000000
    CHANNELS 6 Xposition Yposition Zposition Xrotation Yrotation Zrotation
    JOINT lHip
    {
        OFFSET   0.100000  -0.051395   0.000000
        CHANNELS 3 Xrotation Yrotation Zrotation
        JOINT lKnee
        {
            OFFSET   0.000000  -0.410000   0.000000
            CHANNELS 3 Xrotation Yrotation Zrotation
            JOINT lAnkle
            {
                OFFSET   0.000000  -0.390000   0.000000
                CHANNELS 3 Xrotation Yrotation Zrotation
                JOINT lToeJoint
                {
                    OFFSET   0.000000  -0.050000   0.130000
                    CHANNELS 3 Xrotation Yrotation Zrotation
                    End Site
                    {
                        OFFSET   0.010000   0.002000   0.060000
                    }
                }
            }
        }
    }
    JOINT rHip
    {
        OFFSET  -0.100000  -0.051395   0.000000
        CHANNELS 3 Xrotation Yrotation Zrotation
        JOINT rKnee
        {
            OFFSET   0.000000  -0.410000   0.000000
            CHANNELS 3 Xrotation Yrotation Zrotation
            JOINT rAnkle
            {
                OFFSET   0.000000  -0.390000   0.000000
                CHANNELS 3 Xrotation Yrotation Zrotation
                JOINT rToeJoint
                {
                    OFFSET   0.000000  -0.050000   0.130000
                    CHANNELS 3 Xrotation Yrotation Zrotation
                    End Site
                    {
                        OFFSET  -0.010000   0.002000   0.060000
                    }
                }
            }
        }
    }
    JOINT pelvis_lowerback
    {
        OFFSET   0.000000   0.093605   0.000000
        CHANNELS 3 Xrotation Yrotation Zrotation
        JOINT lowerback_torso
        {
            OFFSET   0.000000   0.100000   0.000000
            CHANNELS 3 Xrotation Yrotation Zrotation
            JOINT torso_head
            {
                OFFSET   0.000000   0.282350   0.000000
                CHANNELS 3 Xrotation Yrotation Zrotation
                End Site
                {
                    OFFSET   0.000000   0.192650   0.000000
                }
            }
            JOINT lTorso_Clavicle
            {
                OFFSET   0.001000   0.157500   0.000000
                CHANNELS 3 Xrotation Yrotation Zrotation
                JOINT lShoulder
                {
                    OFFSET   0.117647   0.000000   0.000000
                    CHANNELS 3 Xrotation Yrotation Zrotation
                    JOINT lElbow
                    {
                        OFFSET   0.245000   0.000000   0.000000
                        CHANNELS 3 Xrotation Yrotation Zrotation
                        JOINT lWrist
                        {
                            OFFSET   0.240000   0.000000   0.000000
                            CHANNELS 3 Xrotation Yrotation Zrotation
                            End Site
                            {
                                OFFSET   0.116353  -0.002500   0.000000
                            }
                        }
                    }
                }
            }
            JOINT rTorso_Clavicle
            {
                OFFSET  -0.001000   0.157500   0.000000
                CHANNELS 3 Xrotation Yrotation Zrotation
                JOINT rShoulder
                {
                    OFFSET  -0.117647   0.000000   0.000000
                    CHANNELS 3 Xrotation Yrotation Zrotation
                    JOINT rElbow
                    {
                        OFFSET  -0.245000   0.000000   0.000000
                        CHANNELS 3 Xrotation Yrotation Zrotation
                        JOINT rWrist
                        {
                            OFFSET  -0.240000   0.000000   0.000000
                            CHANNELS 3 Xrotation Yrotation Zrotation
                            End Site
                            {
                                OFFSET  -0.116353  -0.002500   0.000000
                            }
                        }
                    }
                }
            }
        }
    }
}
MOTION
Frames: 8
Frame Time:   0.016667
 -0.666972   0.841679   5.315382 177.757990  10.572273 178.638138 -42.045897   9.683895  -4.837951  26.900499  -4.359004   3.866743   3.596041  -2.966893  -5.497583   0.000003  -0.000011  -0.000004  19.458515 -18.866275   3.287278   5.143386  -1.494137  -2.087198 -10.829905  -3.945406  13.605996   0.000004   0.000004   0.000000   2.199497   1.016156   0.370533   8.733593   4.137678   1.441409   6.844107   2.168059  -2.814562   0.080150  -1.340669 -17.958048  15.651031 -27.306921 -48.959147   0.309413 -14.361394   5.262759  -5.736703   2.145096   0.978637  -1.097833   1.916818  17.355192  27.584208  27.551284  39.492696  -0.773964  24.288308  -4.055333   3.628510   3.114124  -5.626796
 -0.661446   0.838060   5.301040 177.558277  10.339263 178.986022 -41.682558   9.661745  -5.581119  24.425400  -3.952207   4.245492   3.764515  -2.616319  -4.936107   0.000001   0.000005  -0.000001  20.503822 -18.776368   3.304603   4.734236  -1.538931  -2.149194 -10.446182  -4.048984  14.005515  -0.000001  -0.000000   0.000000   2.185488   1.084669   0.307399   8.683913   4.403817   1.182874   6.419731   2.166827  -2.779691   0.078597  -1.360653 -18.081039  16.245342 -26.104208 -49.003568   0.179472 -10.297431   3.918082  -6.155187   3.283084   0.169081  -1.104775   1.986599  17.397235  26.839112  27.258793  39.229454  -0.759979  24.519134  -4.426138   4.438350   2.947017  -5.536580
 -0.656137   0.834753   5.286637 177.362919  10.174780 179.376001 -41.369605   9.458641  -6.354417  22.345188  -3.363584   4.591448   4.150583  -2.185338  -3.965988   0.000000   0.000015   0.000002  21.480782 -18.716856   3.228157   4.371252  -1.542690  -2.218079  -9.957003  -4.118454  14.434709  -0.000004  -0.000004   0.000000   2.174550   1.155638   0.232517   8.649223   4.678798   0.876893   5.974820   2.173519  -2.746761   0.078990  -1.347479 -18.195656  16.912342 -24.889707 -49.079935   0.128579  -6.491127   2.685331  -6.294827   4.493836  -0.834482  -1.113030   2.065199  17.449505  25.996271  26.913543  39.047097  -0.746566  24.765505  -4.788516   5.210958   2.772011  -5.495058
 -0.651690   0.832699   5.271985 177.178545  10.287614 179.938610 -41.265756   8.547445  -7.246576  21.848018  -1.988545   4.751632   5.398309  -1.404396  -1.367857   0.000000   0.000008   0.000000  22.186310 -18.783069   2.783309   4.193303  -1.383724  -2.313075  -9.049146  -4.055948  14.979337  -0.000001  -0.000002  -0.000001   2.175735   1.236364   0.110587   8.671846   4.988236   0.380435   5.447740   2.212691  -2.721346   0.087450  -1.201690 -18.276784  17.884384 -23.627902 -49.249248   0.068434  -3.722025   1.818474  -5.346020   5.957055  -2.657255  -1.126465   2.179083  17.542661  24.765565  26.344524  39.192456  -0.740278  25.074354  -5.115012   5.833694   2.559719  -5.655345
 -0.647418   0.830886   5.256695 177.013218  10.452450 -179.545461 -41.261090   7.628322  -7.972689  21.927619  -0.668108   4.833590   6.833045  -0.607717   0.647399   0.000000   0.000003  -0.000002  22.764519 -18.937647   2.292568   4.268527  -1.145844  -2.423701  -7.890274  -3.881642  15.420237   0.000001   0.000001  -0.000001   2.175767   1.314660  -0.003926   8.690665   5.288584  -0.086260   4.932812   2.267859  -2.708965   0.099323  -1.002607 -18.369131  18.950547 -22.342349 -49.463160   0.044582  -1.459999   1.063935  -3.983514   7.349486  -4.648467  -1.141039   2.294171  17.646507  23.525379  25.735353  39.406161  -0.736839  25.411829  -5.413484   6.304480   2.387364  -5.980918
 -0.643581   0.829674   5.239810 176.896619  10.750609 -179.146803 -41.476248   6.693369  -8.293503  23.458565   0.516292   4.674308   8.809250   0.121919   1.228402  -0.000001   0.000004  -0.000002  23.022750 -19.303705   1.685847   4.976775  -0.712520  -2.577909  -6.103818  -3.442685  15.595308   0.000002   0.000005  -0.000001   2.172624   1.386887  -0.099883   8.695413   5.566629  -0.477897   4.448336   2.363629  -2.729422   0.119735  -0.670288 -18.489554  20.259688 -20.995478 -49.761905   0.026745  -0.466944   0.579810  -1.654401   8.570046  -7.034865  -1.158230   2.412291  17.777037  22.253603  25.026277  39.808673  -0.743587  25.820965  -5.640501   6.396303   2.317793  -6.724628
 -0.639845   0.828676   5.222467 176.799946  11.051265 -178.790132 -41.677586   5.935137  -8.556217  25.256074   1.576739   4.511488  10.265489   0.768467   1.746486  -0.000002   0.000006  -0.000002  23.139691 -19.727730   1.051843   5.944786  -0.253367  -2.768759  -4.075337  -2.936684  15.659961   0.000002   0.000006  -0.000002   2.168139   1.450507  -0.187393   8.694492   5.811199  -0.834789   4.029679   2.472735  -2.769342   0.142246  -0.315970 -18.612125  21.583197 -19.633973 -50.143467   0.014789   0.222813   0.157876   0.915967   9.591214  -9.431289  -1.175045   2.508384  17.914471  21.037990  24.317039  40.240982  -0.753524  26.248036  -5.827191   6.356377   2.304673  -7.595798
 -0.636338   0.828296   5.203934 176.770204  11.310743 -178.557623 -41.724096   5.886228  -8.736757  27.524429   2.216241   4.532499   9.434540   1.060573   2.672672  -0.000001   0.000005  -0.000001  22.827568 -20.290097   0.351425   7.696202   0.232723  -3.076996  -1.322382  -2.288752  15.421589   0.000000  -0.000001  -0.000001   2.159211   1.482107  -0.248536   8.671010   5.930907  -1.082115   3.862241   2.618435  -2.876482   0.167752   0.073175 -18.731748  22.882268 -18.223195 -50.739771   0.006776   0.206608  -0.124094   3.895593  10.162120 -11.542329  -1.188412   2.515263  18.068695  20.023390  23.669423  40.773104  -0.777479  26.718101  -5.878898   5.945824   2.483396  -8.808867
